<svg xmlns="http://www.w3.org/2000/svg" viewBox="0 0 92.386592 82.247392">
  <g fill="#fff" fill-rule="evenodd" stroke="#000">
    <path d="M12.3 16.856s-1.784-5.128 3.344-4.236c5.128.892 61.76 62.874 61.76 62.874s.67 3.568-2.676 3.122C71.384 78.17 12.3 16.856 12.3 16.856z"/>
    <path d="M.483 46.956s6.243-23.41 16.276-30.99c4.853-3.67 8.894-6.79 14.24-9.718C36.696 3.125 42.355 1.616 47.302.58c2.852-.596-5.05 2.18-13.483 7.542-5 3.18-9.466 7.706-13.956 11.793C6.416 32.155.484 46.955.484 46.955z"/>
  </g>
  <g fill="#fff" fill-rule="evenodd" stroke="#000">
    <path d="M60.46 16.633S69.153 5.708 77.18 3.925c8.027-1.784 13.378-.223 13.378-.223s3.122 8.25-.223 15.83C86.99 27.112 77.85 34.247 77.85 34.247l-7.135-7.357-46.82 47.267-3.346-3.568 47.042-46.6z"/>
    <path d="M61.35 15.296l6.912 6.465s8.25-8.023 12.932-8.915C85.876 11.952 72.944 26 72.944 26l6.69 7.133zM12.74 71.488s6.222-5.4 10.7-1.115c5.13 4.905-.222 11.148-.222 11.148z"/>
    <path d="M16.444 72.027s3.563-3.35 6.128-.692c2.937 3.043-.127 6.916-.127 6.916z" stroke-width=".596"/>
  </g>
</svg>
