<?xml version="1.0" encoding="iso-8859-1"?>
<!-- Generator: Adobe Illustrator 16.0.4, SVG Export Plug-In . SVG Version: 6.00 Build 0)  -->
<!DOCTYPE svg PUBLIC "-//W3C//DTD SVG 1.1//EN" "http://www.w3.org/Graphics/SVG/1.1/DTD/svg11.dtd">
<svg version="1.1" id="Layer_1" xmlns="http://www.w3.org/2000/svg" xmlns:xlink="http://www.w3.org/1999/xlink" x="0px" y="0px"
	 width="1920px" height="1080px" viewBox="0 0 1920 1080" style="enable-background:new 0 0 1920 1080;" xml:space="preserve">
<rect x="0.037" style="fill:#C3DBE0;" width="1919.963" height="1080"/>
<polygon style="fill:#69A6AE;" points="0,658.584 25.637,643.585 52.636,643.585 88.634,578.952 103.633,578.952 135.132,531.091 
	174.13,499.592 199.628,540 199.628,556.59 256.625,658.584 283.624,697.582 325.622,538.248 394.619,447.095 447.116,432.096 
	453.75,404.25 509.667,362.333 573,306.333 609,334.333 609,345.667 637.667,378.333 667,377.667 667,431 693.667,433 
	734.333,501.958 808.334,631.667 914.334,658.334 978.334,561 1044.334,527 1087,476.334 1135,471.573 1148.334,448.334 
	1177,449.667 1184.334,475 1243.001,563.001 1225.001,578.952 1237.668,612.5 1281.001,655.667 1391.001,721 1443.001,675.667 
	1456.334,643 1469.668,612.5 1485.001,585 1485.001,540 1477.001,507.667 1525,533.667 1557,583 1585.667,627 1589.667,667.667 
	1605,695.667 1638.334,715.667 1759.666,661.667 1820.332,612.5 1848.999,572.334 1893.666,559 1900.332,587 1919.982,633 
	1920,1080 0,1080 "/>
<polygon style="fill:#59595A;" points="0,721.583 62.5,684.5 107.5,698 204,633 276.5,633 311,674.5 406.5,635.5 446.5,567 
	478.5,529.5 529.5,521.5 597,503 626.236,488.249 668.5,471.5 749,423.5 785.5,578.952 865.5,642 924.5,639.5 981.5,624 1028,697 
	1078.5,667 1126.5,662.5 1150,607 1192.5,629.5 1244.5,622.5 1325.5,549 1426,653.5 1509,680 1531,729.5 1600,739 1652,619 
	1711.5,581.25 1778,526.5 1820,656.5 1853.5,665 1920,692.5 1920,1080 0,1080 "/>
<polygon style="fill:#898049;stroke:#59595A;stroke-miterlimit:10;" points="727,457.5 706,463 680.5,485 647.5,494.5 612,505 
	581.5,509 559,518.5 536.266,519.646 593.667,503.914 625.593,488.573 668.5,471.5 749,423.5 "/>
<polygon style="fill:#98BF8B;stroke:#69A5AD;stroke-miterlimit:10;" points="558.5,338.5 539,358.5 508.5,376.5 477.5,406 465,439 
	427.5,453.668 400.5,459 390,466.5 376.091,471.573 394.619,447.095 447.116,432.096 453.75,404.25 509.667,362.333 573,306.333 "/>
<path style="fill:#3D3D3D;" d="M0,1080V767c0,0,59-90,59-94s32.667,17.335,32.667,17.335L95,723.001l93.333,58.667L201,729.001
	l45.333-20l19.333-40.666L293,673.001l36.667-45.999L445,761.669l12.667-82l58.667-76.668L529,540l64.667-86.332l226.667,240.667
	l11.334-69.333l51.333-99.334l37.333,34l15.333,52.832L1021,679.002l38.667,40.666l14.666-6.666l27.334,1.333l16-1.333l36.666,44
	l22-16l28-2l34.001-60.001l17.333-66.501l20.665,5.836L1343,707.002l48.666,31.334l36,39.333l51.334,22l32,19.333l13.333-70.666
	l40-42l54.667,1.333l85.331,84.667l54-20.667l52-96l68.667-38.667l40.984,18L1920,1080H0z"/>
<path d="M1894.5,851.5l25.5-0.5l-18-26l17.982-5.5L1898.5,797l8-2.5L1887,772l-12.5,25.5l12.5,0.5l-22.934,21.682
	C1857.893,805.884,1852.5,794,1852.5,794l-74.5-38.5l-1-6.5h21l-13-29l13-3.5l-21-23l9.5-6.5l-16-17.5l-15,23.5l6.5,7l-4.896,5.771
	L1747.5,693.5l5.5-4.5l-10-20l-13.5,24.5l8,5l-19,21.5l13.5,4l-11.5,23.5l17,1v16L1706,771l2-6.5l14-3.5l-14-16.5l14-4l-17.5-21
	l12-3l-16-17l-14,22l11.5,3.5l-16.729,16.3L1671.5,731l8.5-2l-16.5-19.5l-14,22h14l-16,23l12,2.5l-16,20l20-1v8.5l-24,3.5
	l-34.5,12.5l-42,4.5l-1-19.5l23.5,2.5l-17-28l12-1.5l-15.5-19l7.5-1.5l-12-20l-19,22l11,1.5l-14.5,21l10,2.5l-17,22.5l22.5-2.5
	l1,21.5l-5.051-4.023c-5.051-2.521-9.678-1.08-13.449-4.477c-5-4.5-84,42.5-84,42.5l-27.5-15.5l-22-8.5l16-2l-13-16l10-6l-16-17.5
	l10-2l-12.5-21.5l-15.5,22l9.5,4.5c0,0-4,34.5-12.5,10s-58.5-50-58.5-50l-50,53l-9-10.5l14-1l-14.5-14l8.5-2.5l-12-17l-20.5,17.5
	l11.5,3l-14,17.5l10,3.5l-12,18l16,0.5v11l-12.625,19.375l-14-14L1235,819.5l-18-23.5l9-4l-15.5-20l-18.5,30.5l7.5,3L1186,820
	l14-0.5l0.5,8l-18.5,22l21.5-3.25v14.25l-10,8.5l-55-35.5l-25-39l-17-55l-27-21V703l22,0.5l-17-30l17-0.5l-20.5-27l9.5-4.5l-28.5-29
	l-18,21h13l-20,17.5h14.5l-9,23l14.5,2.5v18l-5-3l-28.5-33l-77,105l-22.5,8l-45-45l1-18l17.5-0.5L876,689.5l8.5-4l-11-16.5l11-1
	l-19-17L848,665.5l10.5,1.5L842,685.5l12,4l-10,8L802.5,657L768,719l-12.5-10l17-6.5l-19-23l8.5-3.5l-17.5-22.5l-15,23.5l12.5,3
	l-20.5,28.5l15,1l-20,27l22.5-1v11L693,776l-54.5,19l-27.5-4.5v-17l19-0.5l-15-21l12.5-3L608,728.5l9-5l-12-12L585.5,692l-20,24.5
	L578,721l-18.5,21l18.5,4l-25,26.5l25,0.5v11l-27-3.5L445,706l-20.594,20.865L410.5,707l17.5-5.5l-19-20l12-3l-19-21L385.5,681l11,3
	l-18,25.5H392L374.5,736l22-1v14.5l-55,27.5L316,813.5l-11.5,0.5l-29-28l-18-2l-0.5-6.5l15.5-2l-12-18.5l12-3l-13-14.5l10.5-1
	L255,724l-14.5,15l9.5,0.5L235.5,756l9.5,1l-10.5,18.5l12,1l3.5,7.5h-11.5L199,747.5l-40.5,18l-19.5,23l-7-11.5l15-8.5L126.5,750
	l11-7L119,724l-13,21l10,3.5l-23,24l18,3.5l-8.054,14.356L92.5,782L77,800l7.5,5.5l-11.5,12l11.5,1.5L73,837l15-1v6l-41.5-5.5
	L47,821l23,2l-15-23l15-10.5L50,768l11-7.5L42,742l-14.5,24.5L39,769l-19.5,21.5l13.5,3l-13.5,25H39V835L0,821v259h11h1909V876
	l-24-11.5L1894.5,851.5z M99,841l-1.5-4l11.459-4.202L99,841z M116,827l-4.541,3.739L99.5,822l13-3.5l-10.5-15l7.194-3.769L116,802
	V827z M133,803.333l-9.333,8v-11L133,799V803.333z M407,744.5V735l10.916-1.56L407,744.5z M602.667,787.333H586v-13l16.667,1.334
	V787.333z M748.5,741.5v-10h8L748.5,741.5z M1062.334,711l-6.334-4.667V696l6.334,4.667V711z M1218,848.25v-3.5h7.25L1218,848.25z
	 M1261.25,802v-3.5l3.75-1.5L1261.25,802z M1694.5,743.5l-4.748,6.739l-6.072-6.401L1694.5,743.5z M1689.557,750.516l-7.479,10.615
	L1676,751L1689.557,750.516z M1698,773l-27,9l2.5-6.5l13-7l-2.059-3.43L1698,764V773z M1757.293,721.287L1764.5,725l-5.562,5.695
	l-5.438-7.195L1757.293,721.287z M1746.5,762.5l1-13l7.066-1.075l11.934,2.075l1.5,8L1746.5,762.5z M1866.221,824.504l13.279,0.996
	l-7.395,12.273C1870.216,833.481,1868.207,828.955,1866.221,824.504z M1887,865c0,0-5-1-5-3.5c0-0.683-2.205-6.037-5.406-13.451
	L1887,850V865z"/>
<polygon style="fill:#89804A;stroke:#443237;stroke-miterlimit:10;" points="516.333,612.5 530,602 535.5,563 569,518.5 584,480 
	593.667,453.668 529,540 516.333,603.001 509.064,612.5 501.162,622.828 "/>
<path style="fill:#EBEDEC;" d="M-421,366h-11.999c0-26.899,18.487-48.667,41.333-48.667c0-16.213,9.329-15.333,14.664-26
	c0,0,9.334-6.667,26.003-3.333c0-25.794,21.767-46.667,48.666-46.667c28.742,0,52,2.684,52,6"/>
<path style="fill:#EBEDEC;" d="M-687.002,225.333c-4.498-6.583-14.832-2.558-14.832-2.558s-45.834,18.167-45.834,43.225
	c-15.845,0-28.667,14.611-28.667,32.667h11.333"/>
<path style="fill:#E3E7E5;" d="M-421,366c0-25.426,18.785-46,42-46c0-15.477,16.549-28,37-28c0-24.688,39.509-44.667,88.334-44.667
	c32.059,0,58,8.647,58,19.333c31.689,0,57.333,14.611,57.333,32.667c49.746,0,90,16.4,90,36.667v30H-421z"/>
<path style="fill:#E3E7E5;" d="M-618.335,256c14.371,0,26,4.473,26,10c11.792,0,21.333,14.909,21.333,33.333l-194-0.667
	c0-15.108,12.821-27.333,28.667-27.333c0-13.265,9.84-23.999,22-23.999c0-12.161,12.225-22.001,27.333-22.001
	c15.477,0,28,4.92,28,11C-636.523,236.333-618.335,245.129-618.335,256z"/>
<circle style="fill:#C8C75E;" cx="97.635" cy="108.112" r="152.992"/>
<path style="fill:#0F1010;" d="M1229,468.25c0,0,30.25-7.5,48.25,2.25c0,0,15.75-26.5,39.25-21.25c0,0-23.5,8.5-33.75,30.5
	C1282.75,479.75,1268,470.5,1229,468.25z"/>
<path style="fill:#0F1010;" d="M1328.5,486.25c0,0,20.75-6.75,41,10.75c0,0,17.5-20,41.5-13.5c0,0-30.75,8.5-39,23.25
	C1372,506.75,1349.5,489.25,1328.5,486.25z"/>
</svg>
