<?xml version="1.0" encoding="UTF-8" standalone="no"?>
<svg
   xmlns:dc="http://purl.org/dc/elements/1.1/"
   xmlns:cc="http://creativecommons.org/ns#"
   xmlns:rdf="http://www.w3.org/1999/02/22-rdf-syntax-ns#"
   xmlns:svg="http://www.w3.org/2000/svg"
   xmlns="http://www.w3.org/2000/svg"
   xmlns:sodipodi="http://sodipodi.sourceforge.net/DTD/sodipodi-0.dtd"
   xmlns:inkscape="http://www.inkscape.org/namespaces/inkscape"
   viewBox="0.034443337 1.0266181 755.55506 388.83726"
   width="755.55457"
   height="388.83704"
   id="svg2"
   version="1.1"
   inkscape:version="0.91 r13725"
   sodipodi:docname="imagescape.svg">
  <metadata
     id="metadata110">
    <rdf:RDF>
      <cc:Work
         rdf:about="">
        <dc:format>image/svg+xml</dc:format>
        <dc:type
           rdf:resource="http://purl.org/dc/dcmitype/StillImage" />
        <dc:title></dc:title>
      </cc:Work>
    </rdf:RDF>
  </metadata>
  <defs
     id="defs108" />
  <sodipodi:namedview
     pagecolor="#ffffff"
     bordercolor="#666666"
     borderopacity="1"
     objecttolerance="10"
     gridtolerance="10"
     guidetolerance="10"
     inkscape:pageopacity="0"
     inkscape:pageshadow="2"
     inkscape:window-width="1280"
     inkscape:window-height="756"
     id="namedview106"
     showgrid="false"
     fit-margin-top="0"
     fit-margin-left="0"
     fit-margin-right="0"
     fit-margin-bottom="0"
     inkscape:zoom="0.85897114"
     inkscape:cx="485.55081"
     inkscape:cy="307.08808"
     inkscape:window-x="0"
     inkscape:window-y="0"
     inkscape:window-maximized="1"
     inkscape:current-layer="layer3" />
  <g
     inkscape:groupmode="layer"
     id="layer3"
     inkscape:label="back"
     transform="translate(1.1641827,-20.282952)">
    <rect
       style="fill:#000000;fill-opacity:1"
       id="rect3437"
       width="755.55505"
       height="388.83728"
       x="-1.1297394"
       y="21.309555" />
  </g>
  <g
     inkscape:groupmode="layer"
     id="layer2"
     inkscape:label="fore"
     transform="translate(1.1641827,-20.282952)">
    <path
       d="m 0.47572642,47.511892 95.62418258,-8.08 c 0,0 84.065001,-15.66 102.803001,-13.132 18.737,2.523 94.193,3.533 140.277,13.635 46.084,10.1 157.495,16.667 172.18,12.626 14.687,-4.04 241.76701,3.685359 241.76701,3.685359 1.13807,113.112599 0.28202,229.254169 -0.71334,344.306789 l -168.42967,-3.59215 c -31.14,-1.74 -174.66,19.43 -218.25,5.27 l -14.4,-1.26 -163.33,-8.72 -187.23740654,11.58619 z"
       id="path6"
       inkscape:connector-curvature="0"
       style="fill:#63301b;fill-rule:evenodd;stroke:#000000;stroke-width:1.00100005"
       sodipodi:nodetypes="ccccccccccccc" />
    <path
       d="m 1.3912025,135.59633 -0.71203217,29.69919 c 0,0 113.12461967,25.45431 158.65846967,11.31269 45.53587,-14.14961 183.56249,45.95875 217.00286,22.61939 33.43937,-23.33937 162.92865,-14.13962 162.92865,-14.13962 l 214.15474,-8.48977 0,-28.27923 c 0,0 -219.84697,12.01967 -281.7455,-31.10915 -61.89852,-43.138821 -235.49961,3.5299 -235.49961,3.5299 0,0 -42.68975,23.32937 -234.7895889,14.8496 z"
       id="path8"
       inkscape:connector-curvature="0"
       style="fill:#4c2715;fill-rule:evenodd;stroke:#000000;stroke-width:1.00282991" />
    <g
       transform="translate(3.9069086,-107.83611)"
       id="g10">
      <a
         id="a12">
        <path
           d="m 322.502,262.672 c -8.85,-0.045 -17.057,5.56 -18.95,6.822 -3.032,2.02 -29.295,30.304 -33.84,46.467 -4.547,16.17 12.12,24.25 12.12,24.25 l 0,-6.56 5.05,2.53 0.507,-7.57 5.05,3.03 2.02,-6.56 5.05,2.02 2.02,-6.06 7.07,1.01 1.51,-6.06 5.05,0 4.04,-3.53 0,4.04 -8.09,3.03 0,4.546 -7.58,0.504 -1.52,4.04 -6.57,1.01 -0.507,6.06 -5.56,-2.02 -0.503,6.562 -5.05,-0.51 -1.517,4.04 -5.558,0.51 c 0,0 14.14,19.696 24.24,14.14 10.105,-5.556 25.76,-26.77 25.76,-26.77 0,0 -0.503,-26.77 7.07,-27.78 7.58,-1.01 11.62,-7.07 11.62,-7.07 0,0 4.546,-9.09 -7.576,-25.76 -4.545,-6.25 -10.085,-8.31 -15.394,-8.34 z m -13.29,14.86 c 3.027,-0.04 4.946,1.558 4.946,1.558 0,0 2.02,8.587 -4.04,14.648 -6.062,6.06 -11.618,1.514 -11.618,1.514 0,0 -5.557,-5.05 2.02,-13.13 3.314,-3.536 6.34,-4.558 8.693,-4.59 z"
           id="path14"
           inkscape:connector-curvature="0"
           style="fill:#ddc69d;fill-rule:evenodd;stroke:#000000" />
      </a>
      <path
         d="m 347.998,294.748 c 0,0 -6.06,10.606 -9.092,11.11 -3.03,0.507 2.526,6.062 8.586,-1.01 6.06,-7.07 0.506,-10.1 0.506,-10.1 z"
         id="path16"
         inkscape:connector-curvature="0"
         style="fill:#ddc69d;fill-rule:evenodd;stroke:#000000" />
      <path
         d="m 352.543,299.925 c 0,0 -1.01,6.566 -9.344,11.49 -8.34,4.925 7.82,2.652 8.96,-1.136 1.13,-3.79 3.66,-1.65 0.38,-10.36 z"
         id="path18"
         inkscape:connector-curvature="0"
         style="fill:#ddc69d;fill-rule:evenodd;stroke:#000000" />
      <path
         d="m 356.205,306.996 c 0,0 -3.41,7.576 -8.713,9.344 -5.303,1.768 3.662,3.283 5.683,0.757 2.02,-2.525 5.177,-5.43 5.177,-4.924 0,0.505 0.378,-4.167 -2.147,-5.177 z m 4.04,5.43 c 0,0 -5.555,7.954 -8.84,8.965 -3.28,1.01 5.053,3.41 7.578,-0.37 2.525,-3.79 3.662,-5.05 1.263,-8.58 z"
         id="path20"
         inkscape:connector-curvature="0"
         style="fill:#ddc69d;fill-rule:evenodd;stroke:#000000" />
      <path
         d="m 355.447,325.305 c 0,0 7.324,-3.788 8.082,-7.703 0.75,-3.914 3.28,3.157 2.02,4.294 -1.27,1.136 -3.04,4.293 -5.56,5.177 -2.53,0.884 -3.92,-0.253 -4.55,-1.768 z m 12.627,-3.915 c 0,0 -4.672,7.072 -8.08,8.46 -3.41,1.39 5.934,2.78 7.07,2.147 1.137,-0.63 3.915,-6.818 3.915,-6.818 0,0 0.37,-1.77 -2.91,-3.79 z m -3.284,31.694 c 0,0 8.46,6.692 7.704,9.218 -0.758,2.525 3.788,9.09 -5.43,8.712 -9.217,-0.38 -25.632,-0.757 -25.632,-0.757 0,0 -0.632,10.1 -7.198,-0.38 -6.566,-10.48 7.324,-8.46 7.324,-8.46 0,0 1.64,1.264 1.515,3.915 -0.126,2.652 19.824,-3.03 19.824,-3.03 0,0 -2.525,-8.334 1.894,-9.218 z M 330.7,366.09 c 0,0 -5.7,4.01 -8.335,7.323 -2.482,3.12 -3.625,9.122 -4.18,15.732 -0.454,5.384 0.435,6.593 0.888,8.067 1.01,3.283 3.627,4.95 3.627,4.95 0,0 -1.648,-7.037 -0.887,-13.705 0.582,-5.1 2.415,-9.97 2.415,-9.97 0.963,-2.064 6.092,-9.746 7.228,-8.862 1.137,0.884 -0.757,-3.535 -0.757,-3.535 z"
         id="path22"
         inkscape:connector-curvature="0"
         style="fill:#ddc69d;fill-rule:evenodd;stroke:#000000" />
      <a
         transform="translate(0.505,-1.39)"
         id="a24"
         style="fill:#ddc69d">
        <path
           d="m 332.34,372.403 c 0,0 -4.167,3.157 -5.177,7.07 -1.01,3.916 -2.146,11.997 -2.146,11.997 0,0 1.533,9.095 2.417,10.105 0.884,1.01 3.627,5.666 3.627,5.666 0,0 -2.57,-16.53 -2.5,-17.16 0.36,-3.52 4.96,-13.95 4.83,-15.36 -0.38,-4.31 -1.04,-2.31 -1.04,-2.31 z"
           id="path26"
           inkscape:connector-curvature="0"
           style="fill-rule:evenodd;stroke:#000000" />
      </a>
      <path
         d="m 336.128,375.307 c 0,0 -2.778,3.79 -3.03,6.06 -0.253,2.274 0.252,10.103 0.252,10.103 0,0 1.642,8.586 3.662,9.218 2.02,0.63 6.06,2.02 6.06,2.02 l -4.545,-4.798 c 0,0 -3.535,-10.86 -2.525,-13.51 1.01,-2.653 1.39,-8.082 1.39,-8.082 z m 41.122,-55.195 c 0,0 -4.75,14 -10.375,17.75 -5.625,3.75 3.75,2.125 3.75,2.125 0,0 11.75,-10.25 11,-12.375 -0.75,-2.125 -1,-6 -4.375,-7.5 z m 8,7.125 c 0,0 -2.625,12.875 -5.125,15 -2.5,2.125 -11.375,8.75 -11.375,8.75 0,0 3.125,6 5.25,7.25 2.125,1.25 20.125,-0.25 22.375,-2 2.25,-1.75 15.125,-16.5 15,-19.125 -0.125,-2.625 -17,-4.375 -26.125,-9.875 z m 30.706,8.65 -6.364,9.545 9.192,-0.353 c 0,0 2.12,5.65 3.182,5.83 1.06,0.17 0.177,-5.48 0.177,-5.48 l 3.712,0 0.177,-9.73 -2.932,-0.2 c 0,0 0.408,-0.85 1.127,-2.16 0.747,-1.37 1.805,-3.22 1.73,-3.78 -0.056,-0.42 -3.434,2.29 -3.643,2.53 -2.238,2.56 -1.315,2.1 -2.76,3.85 z m 14.142,-0.53 -0.53,9.37 4.242,-0.355 3.89,5.48 -0.178,-5.657 4.42,-0.177 0.177,-9.37 -4.07,-0.176 3,-6.717 -6.01,7.07 z m 15.38,0.53 -1.59,8.31 3.357,0.882 1.768,4.59 0.707,-4.42 5.48,0.17 0.354,-7.25 -4.243,-1.24 4.07,-5.66 -7.07,4.42 z m 12.55,2.297 -0.353,7.07 4.596,0.71 1.95,5.832 0.89,-5.303 3.36,0 0,-8.132 -2.83,0.36 1.77,-6.01 -4.77,6.01 z m 14.672,1.416 -0.53,7.777 4.774,0.884 2.298,6.01 0.176,-6.36 5.304,0.71 0.53,-8.13 -4.95,-0.88 1.945,-5.65 -5.657,5.66 z m -46.49,6.893 c 0,0 -2.616,25.31 -4.067,31.113 -1.67,6.684 -1.614,5.497 -4.008,11.265 -2.018,4.87 -7.996,7.69 -10.31,8.89 -5.128,2.65 7.423,-1.41 7.423,-1.41 0,0 3.517,-1.77 6.118,-6.48 2.573,-4.66 3.782,-10.84 3.782,-10.84 1.273,-10.83 4.596,-31.82 3.89,-32.52 -0.708,-0.7 -2.83,0 -2.83,0 z m -15.91,0.707 3.004,0.354 c 0,0 1.178,5.676 -0.32,12.837 -1.093,5.23 -5.506,14.76 -8.342,18.63 -1.564,2.14 -13.656,8.99 -12.198,7.6 l 7.07,-6.71 c 0,0 1.117,0.06 6.542,-9.72 5.028,-9.06 4.27,-13.76 4.066,-13.79 z"
         id="path28"
         inkscape:connector-curvature="0"
         style="fill:#ddc69d;fill-rule:evenodd;stroke:#000000" />
      <path
         d="m 438.937,347.377 2.298,0 c 0,0 -0.53,31.643 -1.768,35.532 -1.238,3.88 -2.12,20.32 -13.965,23.33 -11.845,3 -4.243,-0.71 -4.243,-0.71 0,0 10.48,-1.35 13.96,-19.62 3.53,-18.56 3.71,-38.54 3.71,-38.54 z m 13.788,1.06 3.182,0.177 -0.177,30.583 c 0,0 -0.58,4.995 -2.537,9.42 -0.947,2.14 -1.406,2.658 -3.827,5.252 -7.424,7.95 -9.015,6.89 -10.253,7.42 -1.237,0.53 8.132,-4.42 12.375,-16.62 0.497,-1.43 0.707,-3.66 1.203,-6.96 0.85,-5.63 0.97,-11.94 0.75,-16.74 -0.35,-7.61 -0.7,-12.56 -0.7,-12.56 z m 13.79,0.177 2.65,0 c 0.51,-0.937 1.155,29.217 -1.767,36.063 -1.455,3.407 -4.29,10.71 -6.895,12.374 -2.635,1.69 -7.778,2.3 -7.778,2.3 0.07,0.1 9.133,-2.07 12.02,-18.21 2.752,-15.36 1.77,-32.52 1.77,-32.52 z M 497.273,337.3 c 0,0 -6.54,3.006 -10.43,18.208 -3.89,15.203 -9.016,13.26 -9.016,13.26 0,0 -1.414,5.125 2.122,6.54 3.53,1.414 -4.6,3.358 -7.08,2.828 -1.53,-0.327 -1.93,4.05 0.65,7.21 1.61,1.97 6.49,1.348 7.83,3.75 4.42,7.93 12.02,31.467 12.02,31.466 0,0 0.29,2.31 -0.52,4.194 -1.42,3.295 -4.03,7.104 -1.78,8.004 3.53,1.414 7.07,-2.83 7.07,-2.83 0,0 5.3,-5.125 3.89,-7.423 -1.42,-2.298 -4.42,-1.59 -4.42,-1.59 l -13.79,-33.765 c 0,0 -0.71,-6.188 5.12,-11.49 5.83,-5.304 11.67,-0.355 11.67,-0.355 0,0 7.07,4.597 4.77,-18.384 -2.3,-22.98 -8.135,-19.623 -8.135,-19.623 z m 17.147,24.042 c 0,0 -2.828,17.855 -2.828,18.562 0,0.707 7.07,9.37 11.137,7.955 4.06,-1.42 9.01,-4.78 9.01,-4.78 l 2.83,-26.34 c 0,0 -8.31,13.96 -11.67,13.08 -3.36,-0.88 -8.49,-8.49 -8.49,-8.49 z m 22.628,8.132 -2.3,18.385 c 0,0 8.31,6.71 9.37,6.18 1.06,-0.53 7.425,3.89 9.9,-5.48 2.475,-9.37 3.89,-24.22 3.89,-24.22 0,0 -9.37,12.9 -11.668,12.02 -2.298,-0.89 -9.192,-6.9 -9.192,-6.9 z m 23.157,4.066 0,18.384 c 0,0 6.01,3.89 8.486,2.83 2.48,-1.062 11.67,-2.653 11.67,-2.653 l -0.7,-12.37 c 0,0 -1.76,-0.7 -2.65,-1.94 -0.88,-1.23 0.18,-15.38 0.18,-15.38 l -7.43,14.5 c 0,0 -1.94,1.06 -9.54,-3.35 z m 24.042,-3.182 0.354,17.677 c 0,0 18.39,0.707 19.1,0.177 0.71,-0.53 -0.17,-13.965 -0.17,-13.965 l -2.83,-1.06 1.95,-16.088 c 0,0 -6.36,8.66 -7.07,13.61 -0.71,4.95 -6.36,0.88 -6.36,0.88 z m 25.103,-8.662 3.712,14.85 13.435,0.883 4.42,-5.31 -5.658,-13.44 -2.66,-13.44 -4.95,15.91 z m 20.33,-6.188 4.772,13.79 15.556,-2.653 -0.53,-12.55 -3.006,0.353 -2.475,-14.673 -3.005,14.85 z m 22.096,-4.596 3.358,10.43 9.9,-2.298 -0.53,-10.253 -4.066,0.89 1.414,-9.19 -5.48,10.08 z m 16.794,-3.535 1.414,8.485 11.313,-2.12 -0.707,-8.84 -3.89,0.177 0.708,-9.02 -4.596,9.37 z m 15.733,-1.945 1.06,6.187 c 0,0 23.688,-0.89 26.34,1.06 2.652,1.94 -1.59,-4.78 -27.4,-7.25 z m -178.545,78.666 -6.187,8.485 c 0,0 5.48,3.182 6.19,2.475 0.48,-0.48 7.36,10.628 14.95,20.47 3.62,4.69 16.52,10.112 16.52,10.112 0,0 -9.18,-5.68 -15.33,-14.4 -3.63,-5.142 -12.35,-14.8 -12.94,-15.652 -0.8,-1.156 7.7,5.4 15.65,13.165 7.847,7.665 15.12,16.532 15.827,16.18 1.26,-0.63 -5.883,-12.946 -20.745,-26.487 -1.56,-1.422 -10.47,-7.284 -10.9,-9.045 -0.72,-2.96 -3.002,-5.3 -3.002,-5.3 z m 35.355,46.14 c 0,0 -9.545,-1.416 -9.192,-3.89 0.36,-2.475 -25.27,-1.06 -28.46,1.414 -3.18,2.475 1.59,16.44 1.59,16.44 0,0 -0.7,-10.076 3.01,-12.374 1.96,-1.214 7.81,-1.905 19.98,1.237 3.07,0.793 -3.31,1.363 -9.42,3.576 -4.78,1.74 -7.85,-0.61 -9.49,5.62 0,0 3.18,12.91 4.25,12.55 1.06,-0.35 0.53,-12.02 0.53,-12.02 0,0 24.22,-6.36 27.23,-12.55 z"
         id="path30"
         inkscape:connector-curvature="0"
         style="fill:#ddc69d;fill-rule:evenodd;stroke:#000000" />
      <ellipse
         cx="23.334999"
         cy="256.867"
         rx="7.7779999"
         ry="5.6570001"
         id="ellipse32"
         style="fill:#573625" />
      <ellipse
         cx="62.578999"
         cy="254.746"
         rx="11.667"
         ry="9.1920004"
         id="ellipse34"
         style="fill:#573625" />
      <circle
         cx="89.448997"
         cy="269.241"
         r="3.8889999"
         id="circle36"
         style="fill:#573625" />
      <ellipse
         cx="115.966"
         cy="266.767"
         rx="7.7779999"
         ry="5.6570001"
         id="ellipse38"
         style="fill:#573625" />
      <ellipse
         cx="214.25301"
         cy="275.25201"
         rx="11.314"
         ry="9.1920004"
         id="ellipse40"
         style="fill:#573625" />
      <ellipse
         cx="354.26001"
         cy="256.16"
         rx="7.7779999"
         ry="5.6570001"
         id="ellipse42"
         style="fill:#573625" />
      <ellipse
         cx="398.10101"
         cy="288.33301"
         rx="8.4849997"
         ry="8.8389997"
         id="ellipse44"
         style="fill:#573625" />
      <ellipse
         cx="368.40302"
         cy="237.06799"
         rx="7.7779999"
         ry="5.6570001"
         id="ellipse46"
         style="fill:#573625" />
      <ellipse
         cx="442.29501"
         cy="269.241"
         rx="8.132"
         ry="3.8889999"
         id="ellipse48"
         style="fill:#573625" />
      <ellipse
         cx="536.69397"
         cy="263.93799"
         rx="7.7779999"
         ry="5.6570001"
         id="ellipse50"
         style="fill:#573625" />
      <ellipse
         cx="557.20001"
         cy="262.87701"
         rx="5.6570001"
         ry="3.1819999"
         id="ellipse52"
         style="fill:#573625" />
      <ellipse
         cx="637.81"
         cy="273.13101"
         rx="7.7779999"
         ry="5.6570001"
         id="ellipse54"
         style="fill:#573625" />
      <ellipse
         cx="685.18597"
         cy="269.595"
         rx="5.6570001"
         ry="3.536"
         id="ellipse56"
         style="fill:#573625" />
      <ellipse
         cx="479.065"
         cy="257.92801"
         rx="11.667"
         ry="9.5459995"
         id="ellipse58"
         style="fill:#3f1a08" />
      <ellipse
         cx="344.36099"
         cy="234.24001"
         rx="12.374"
         ry="5.303"
         id="ellipse60"
         style="fill:#3f1a08" />
      <circle
         cx="585.13098"
         cy="274.19101"
         id="ellipse62"
         r="7.7779999"
         style="fill:#3f1a08" />
      <ellipse
         cx="657.60901"
         cy="267.827"
         rx="6.7179999"
         ry="4.243"
         id="ellipse64"
         style="fill:#3f1a08" />
      <ellipse
         cx="724.43103"
         cy="274.19101"
         rx="7.0710001"
         ry="5.6570001"
         id="ellipse66"
         style="fill:#3f1a08" />
      <circle
         cx="744.22998"
         cy="264.99899"
         id="ellipse68"
         r="4.243"
         style="fill:#3f1a08" />
      <ellipse
         cx="471.64001"
         cy="278.43399"
         rx="6.7179999"
         ry="4.9499998"
         id="ellipse70"
         style="fill:#3f1a08" />
      <ellipse
         cx="287.08499"
         cy="255.806"
         rx="8.8389997"
         ry="7.7779999"
         id="ellipse72"
         style="fill:#3f1a08" />
      <ellipse
         cx="182.787"
         cy="262.52399"
         rx="7.7779999"
         ry="7.4250002"
         id="ellipse74"
         style="fill:#3f1a08" />
      <ellipse
         cx="103.945"
         cy="253.332"
         rx="9.5459995"
         ry="3.8889999"
         id="ellipse76"
         style="fill:#3f1a08" />
      <ellipse
         cx="41.719002"
         cy="250.14999"
         rx="6.0100002"
         ry="5.6570001"
         id="ellipse78"
         style="fill:#3f1a08" />
      <ellipse
         cx="410.12201"
         cy="251.21001"
         rx="11.667"
         ry="9.5459995"
         id="ellipse80"
         style="fill:#3f1a08" />
      <ellipse
         cx="267.99301"
         cy="280.202"
         rx="8.4849997"
         ry="8.8389997"
         id="ellipse82"
         style="fill:#573625" />
      <ellipse
         cx="224.506"
         cy="251.21001"
         rx="6.0100002"
         ry="4.5960002"
         id="ellipse84"
         style="fill:#573625" />
      <ellipse
         cx="251.37601"
         cy="243.786"
         rx="11.314"
         ry="8.8389997"
         id="ellipse86"
         style="fill:#3f1a08" />
      <ellipse
         cx="397.04001"
         cy="229.28999"
         rx="8.8389997"
         ry="7.7779999"
         id="ellipse88"
         style="fill:#573625" />
      <ellipse
         cx="438.76001"
         cy="229.28999"
         rx="7.0710001"
         ry="5.303"
         id="ellipse90"
         style="fill:#3f1a08" />
      <ellipse
         cx="502.04599"
         cy="245.55299"
         rx="7.7779999"
         ry="5.6570001"
         id="ellipse92"
         style="fill:#573625" />
      <ellipse
         cx="448.306"
         cy="245.2"
         rx="4.5960002"
         ry="3.536"
         id="ellipse94"
         style="fill:#573625" />
      <ellipse
         cx="619.07202"
         cy="265.35199"
         rx="4.5960002"
         ry="3.536"
         id="ellipse96"
         style="fill:#3f1a08" />
      <circle
         cx="415.42499"
         cy="277.72699"
         id="ellipse98"
         r="4.243"
         style="fill:#3f1a08" />
      <circle
         cx="425.32501"
         cy="286.91901"
         id="ellipse100"
         r="4.243"
         style="fill:#3f1a08" />
      <ellipse
         cx="241.83099"
         cy="279.49399"
         rx="8.132"
         ry="6.0100002"
         id="ellipse102"
         style="fill:#3f1a08" />
      <path
         d="m 66.29,149.917 19.8,-1.768 c 0,0 0.354,9.54 0.884,10.96 0.53,1.41 1.238,9.9 1.238,12.02 0,2.12 1.59,16.97 2.474,19.27 0.884,2.29 3.36,13.08 1.945,17.32 -1.41,4.24 4.78,19.97 4.78,21.39 0,1.41 9.73,40.3 6.9,64.52 -2.83,24.22 21.92,28.28 21.92,28.28 0,0 12.95,2.1 18.39,22.98 6.72,25.81 0.36,43.13 -39.24,44.19 -14.65,0.39 -27.91,-1.78 -35.68,-4.68 -13.22,-4.93 -17,-26.09 -17,-26.09 0,0 -4.35,-7.07 2.52,-23.117 4.19,-9.76 5.15,-10.136 20.11,-18.96 9.87,-5.82 12.06,-18.436 10.62,-30.407 -2.35,-19.57 -7.08,-45.6 -7.08,-45.6 0,0 -9.19,-25.46 -7.42,-39.95 0.365,-3.02 -1.77,-14.5 -2.48,-21.925 -0.706,-7.423 -2.65,-28.46 -2.65,-28.46 z"
         id="path104"
         inkscape:connector-curvature="0"
         style="fill:#573625;fill-rule:evenodd;stroke:#000000" />
    </g>
  </g>
</svg>
