<svg xmlns="http://www.w3.org/2000/svg" viewBox="0.034443337 1.0266181 755.55506 388.83726">
  <path d="M.034 1.027H755.59v388.837H.033z"/>
  <path d="M1.64 27.23l95.624-8.08S181.33 3.49 200.067 6.016C218.804 8.54 294.26 9.55 340.344 19.652c46.084 10.1 157.495 16.667 172.18 12.626 14.687-4.04 241.767 3.685 241.767 3.685 1.14 113.113.29 229.254-.71 344.307l-168.43-3.592c-31.14-1.74-174.66 19.43-218.25 5.27l-14.4-1.26-163.33-8.72L1.93 383.554z" fill="#63301b" fill-rule="evenodd" stroke="#000" stroke-width="1.001"/>
  <path d="M2.555 115.313l-.712 29.7s113.125 25.454 158.66 11.312c45.535-14.15 183.56 45.96 217.002 22.62 33.44-23.34 162.928-14.14 162.928-14.14l214.155-8.49v-28.28s-219.847 12.02-281.745-31.108c-61.9-43.14-235.5 3.53-235.5 3.53s-42.69 23.33-234.79 14.85z" fill="#4c2715" fill-rule="evenodd" stroke="#000" stroke-width="1.003"/>
  <g transform="translate(5.07 -128.12)">
    <a>
      <path d="M322.502 262.672c-8.85-.045-17.057 5.56-18.95 6.822-3.032 2.02-29.295 30.304-33.84 46.467-4.547 16.17 12.12 24.25 12.12 24.25v-6.56l5.05 2.53.507-7.57 5.05 3.03 2.02-6.56 5.05 2.02 2.02-6.06 7.07 1.01 1.51-6.06h5.05l4.04-3.53v4.04l-8.09 3.03v4.55l-7.58.508-1.52 4.04-6.57 1.01-.51 6.06-5.56-2.02-.508 6.563-5.05-.51-1.518 4.04-5.56.51s14.14 19.696 24.24 14.14c10.106-5.556 25.76-26.77 25.76-26.77s-.502-26.77 7.07-27.78c7.58-1.01 11.62-7.07 11.62-7.07s4.547-9.09-7.575-25.76c-4.545-6.25-10.085-8.31-15.394-8.34zm-13.29 14.86c3.027-.04 4.946 1.558 4.946 1.558s2.02 8.587-4.04 14.648c-6.062 6.06-11.618 1.514-11.618 1.514s-5.557-5.05 2.02-13.13c3.314-3.536 6.34-4.558 8.693-4.59z" fill="#ddc69d" fill-rule="evenodd" stroke="#000"/>
    </a>
    <path d="M347.998 294.748s-6.06 10.606-9.092 11.11c-3.03.507 2.526 6.062 8.586-1.01 6.06-7.07.506-10.1.506-10.1z" fill="#ddc69d" fill-rule="evenodd" stroke="#000"/>
    <path d="M352.543 299.925s-1.01 6.566-9.344 11.49c-8.34 4.925 7.82 2.652 8.96-1.136 1.13-3.79 3.66-1.65.38-10.36z" fill="#ddc69d" fill-rule="evenodd" stroke="#000"/>
    <path d="M356.205 306.996s-3.41 7.576-8.713 9.344c-5.303 1.768 3.662 3.283 5.683.757 2.02-2.525 5.177-5.43 5.177-4.924 0 .505.378-4.167-2.147-5.177zm4.04 5.43s-5.555 7.954-8.84 8.965c-3.28 1.01 5.053 3.41 7.578-.37 2.525-3.79 3.662-5.05 1.263-8.58z" fill="#ddc69d" fill-rule="evenodd" stroke="#000"/>
    <path d="M355.447 325.305s7.324-3.788 8.082-7.703c.75-3.914 3.28 3.157 2.02 4.294-1.27 1.136-3.04 4.293-5.56 5.177-2.53.884-3.92-.253-4.55-1.768zm12.627-3.915s-4.672 7.072-8.08 8.46c-3.41 1.39 5.934 2.78 7.07 2.147 1.137-.63 3.915-6.818 3.915-6.818s.37-1.77-2.91-3.79zm-3.284 31.694s8.46 6.692 7.704 9.218c-.758 2.525 3.788 9.09-5.43 8.712-9.217-.38-25.632-.757-25.632-.757s-.632 10.1-7.198-.38c-6.566-10.48 7.324-8.46 7.324-8.46s1.64 1.264 1.515 3.915c-.126 2.652 19.824-3.03 19.824-3.03s-2.525-8.334 1.894-9.218zM330.7 366.09s-5.7 4.01-8.335 7.323c-2.482 3.12-3.625 9.122-4.18 15.732-.454 5.384.435 6.593.888 8.067 1.01 3.283 3.627 4.95 3.627 4.95s-1.648-7.037-.887-13.705c.582-5.1 2.415-9.97 2.415-9.97.963-2.064 6.092-9.746 7.228-8.862 1.137.884-.757-3.535-.757-3.535z" fill="#ddc69d" fill-rule="evenodd" stroke="#000"/>
    <a transform="translate(.505 -1.39)" fill="#ddc69d">
      <path d="M332.34 372.403s-4.167 3.157-5.177 7.07c-1.01 3.916-2.146 11.997-2.146 11.997s1.533 9.095 2.417 10.105c.884 1.01 3.627 5.666 3.627 5.666s-2.57-16.53-2.5-17.16c.36-3.52 4.96-13.95 4.83-15.36-.38-4.31-1.04-2.31-1.04-2.31z" fill-rule="evenodd" stroke="#000"/>
    </a>
    <path d="M336.128 375.307s-2.778 3.79-3.03 6.06c-.253 2.274.252 10.103.252 10.103s1.642 8.586 3.662 9.218c2.02.63 6.06 2.02 6.06 2.02l-4.545-4.798s-3.535-10.86-2.525-13.51c1.01-2.653 1.39-8.082 1.39-8.082zm41.122-55.195s-4.75 14-10.375 17.75 3.75 2.125 3.75 2.125 11.75-10.25 11-12.375-1-6-4.375-7.5zm8 7.125s-2.625 12.875-5.125 15-11.375 8.75-11.375 8.75 3.125 6 5.25 7.25 20.125-.25 22.375-2 15.125-16.5 15-19.125-17-4.375-26.125-9.875zm30.706 8.65l-6.364 9.545 9.192-.353s2.12 5.65 3.182 5.83c1.06.17.177-5.48.177-5.48h3.712l.177-9.73-2.932-.2s.408-.85 1.127-2.16c.747-1.37 1.805-3.22 1.73-3.78-.056-.42-3.434 2.29-3.643 2.53-2.238 2.56-1.315 2.1-2.76 3.85zm14.142-.53l-.53 9.37 4.242-.355 3.89 5.48-.178-5.657 4.42-.177.177-9.37-4.07-.176 3-6.717-6.01 7.07zm15.38.53l-1.59 8.31 3.357.882 1.768 4.59.707-4.42 5.48.17.354-7.25-4.243-1.24 4.07-5.66-7.07 4.42zm12.55 2.297l-.353 7.07 4.596.71 1.95 5.832.89-5.303h3.36v-8.132l-2.83.36 1.77-6.01-4.77 6.01zM472.7 339.6l-.53 7.777 4.774.884 2.298 6.01.176-6.36 5.304.71.53-8.13-4.95-.88 1.945-5.65-5.657 5.66zm-46.49 6.893s-2.616 25.31-4.067 31.113c-1.67 6.684-1.614 5.497-4.008 11.265-2.018 4.87-7.996 7.69-10.31 8.89-5.128 2.65 7.423-1.41 7.423-1.41s3.517-1.77 6.118-6.48c2.573-4.66 3.782-10.84 3.782-10.84 1.273-10.83 4.596-31.82 3.89-32.52-.708-.7-2.83 0-2.83 0zm-15.91.707l3.004.354s1.178 5.676-.32 12.837c-1.093 5.23-5.506 14.76-8.342 18.63-1.564 2.14-13.656 8.99-12.198 7.6l7.07-6.71s1.117.06 6.542-9.72c5.028-9.06 4.27-13.76 4.066-13.79z" fill="#ddc69d" fill-rule="evenodd" stroke="#000"/>
    <path d="M438.937 347.377h2.298s-.53 31.643-1.768 35.532c-1.238 3.88-2.12 20.32-13.965 23.33-11.845 3-4.243-.71-4.243-.71s10.48-1.35 13.96-19.62c3.53-18.56 3.71-38.54 3.71-38.54zm13.788 1.06l3.182.177-.177 30.583s-.58 4.995-2.537 9.42c-.947 2.14-1.406 2.658-3.827 5.252-7.424 7.95-9.015 6.89-10.253 7.42-1.237.53 8.132-4.42 12.375-16.62.497-1.43.707-3.66 1.203-6.96.85-5.63.97-11.94.75-16.74-.35-7.61-.7-12.56-.7-12.56zm13.79.177h2.65c.51-.937 1.155 29.217-1.767 36.063-1.455 3.407-4.29 10.71-6.895 12.374-2.635 1.69-7.778 2.3-7.778 2.3.07.1 9.133-2.07 12.02-18.21 2.752-15.36 1.77-32.52 1.77-32.52zm30.758-11.314s-6.54 3.006-10.43 18.208c-3.89 15.203-9.016 13.26-9.016 13.26s-1.414 5.125 2.122 6.54c3.53 1.414-4.6 3.358-7.08 2.828-1.53-.327-1.93 4.05.65 7.21 1.61 1.97 6.49 1.348 7.83 3.75 4.42 7.93 12.02 31.467 12.02 31.466 0 0 .29 2.31-.52 4.194-1.42 3.295-4.03 7.104-1.78 8.004 3.53 1.414 7.07-2.83 7.07-2.83s5.3-5.125 3.89-7.423c-1.42-2.298-4.42-1.59-4.42-1.59l-13.79-33.765s-.71-6.188 5.12-11.49c5.83-5.304 11.67-.355 11.67-.355s7.07 4.597 4.77-18.384c-2.3-22.98-8.14-19.623-8.14-19.623zm17.147 24.042s-2.828 17.855-2.828 18.562c0 .707 7.07 9.37 11.137 7.955 4.06-1.42 9.01-4.78 9.01-4.78l2.83-26.34s-8.31 13.96-11.67 13.08c-3.36-.88-8.49-8.49-8.49-8.49zm22.628 8.132l-2.3 18.385s8.31 6.71 9.37 6.18c1.06-.53 7.425 3.89 9.9-5.48 2.475-9.37 3.89-24.22 3.89-24.22s-9.37 12.9-11.668 12.02c-2.298-.89-9.192-6.9-9.192-6.9zm23.157 4.066v18.384s6.01 3.89 8.486 2.83c2.48-1.062 11.67-2.653 11.67-2.653l-.7-12.37s-1.76-.7-2.65-1.94c-.88-1.23.18-15.38.18-15.38l-7.43 14.5s-1.94 1.06-9.54-3.35zm24.042-3.182l.354 17.677s18.39.707 19.1.177c.71-.53-.17-13.965-.17-13.965l-2.83-1.06 1.95-16.088s-6.36 8.66-7.07 13.61c-.71 4.95-6.36.88-6.36.88zm25.103-8.662l3.712 14.85 13.435.883 4.42-5.31-5.658-13.44-2.66-13.44-4.95 15.91zm20.33-6.188l4.772 13.79 15.556-2.653-.53-12.55-3.006.353-2.475-14.673-3.005 14.85zm22.096-4.596l3.358 10.43 9.9-2.298-.53-10.253-4.066.89 1.414-9.19-5.48 10.08zm16.794-3.535l1.414 8.485 11.313-2.12-.707-8.84-3.89.177.708-9.02-4.596 9.37zm15.733-1.945l1.06 6.187s23.688-.89 26.34 1.06c2.652 1.94-1.59-4.78-27.4-7.25zm-178.545 78.666l-6.187 8.485s5.48 3.182 6.19 2.475c.48-.48 7.36 10.628 14.95 20.47 3.62 4.69 16.52 10.112 16.52 10.112s-9.18-5.68-15.33-14.4c-3.63-5.142-12.35-14.8-12.94-15.652-.8-1.156 7.7 5.4 15.65 13.165 7.85 7.665 15.12 16.532 15.83 16.18 1.26-.63-5.88-12.946-20.74-26.487-1.56-1.422-10.47-7.284-10.9-9.045-.72-2.96-3.002-5.3-3.002-5.3zm35.355 46.14s-9.545-1.416-9.192-3.89c.36-2.475-25.27-1.06-28.46 1.414-3.18 2.475 1.59 16.44 1.59 16.44s-.7-10.076 3.01-12.374c1.96-1.214 7.81-1.905 19.98 1.237 3.07.793-3.31 1.363-9.42 3.576-4.78 1.74-7.85-.61-9.49 5.62 0 0 3.18 12.91 4.25 12.55 1.06-.35.53-12.02.53-12.02s24.22-6.36 27.23-12.55z" fill="#ddc69d" fill-rule="evenodd" stroke="#000"/>
    <ellipse ry="5.657" rx="7.778" cy="256.867" cx="23.335" fill="#573625"/>
    <ellipse ry="9.192" rx="11.667" cy="254.746" cx="62.579" fill="#573625"/>
    <circle r="3.889" cy="269.241" cx="89.449" fill="#573625"/>
    <ellipse ry="5.657" rx="7.778" cy="266.767" cx="115.966" fill="#573625"/>
    <ellipse ry="9.192" rx="11.314" cy="275.252" cx="214.253" fill="#573625"/>
    <ellipse ry="5.657" rx="7.778" cy="256.16" cx="354.26" fill="#573625"/>
    <ellipse ry="8.839" rx="8.485" cy="288.333" cx="398.101" fill="#573625"/>
    <ellipse ry="5.657" rx="7.778" cy="237.068" cx="368.403" fill="#573625"/>
    <ellipse ry="3.889" rx="8.132" cy="269.241" cx="442.295" fill="#573625"/>
    <ellipse ry="5.657" rx="7.778" cy="263.938" cx="536.694" fill="#573625"/>
    <ellipse ry="3.182" rx="5.657" cy="262.877" cx="557.2" fill="#573625"/>
    <ellipse ry="5.657" rx="7.778" cy="273.131" cx="637.81" fill="#573625"/>
    <ellipse ry="3.536" rx="5.657" cy="269.595" cx="685.186" fill="#573625"/>
    <ellipse ry="9.546" rx="11.667" cy="257.928" cx="479.065" fill="#3f1a08"/>
    <ellipse ry="5.303" rx="12.374" cy="234.24" cx="344.361" fill="#3f1a08"/>
    <circle r="7.778" cy="274.191" cx="585.131" fill="#3f1a08"/>
    <ellipse ry="4.243" rx="6.718" cy="267.827" cx="657.609" fill="#3f1a08"/>
    <ellipse ry="5.657" rx="7.071" cy="274.191" cx="724.431" fill="#3f1a08"/>
    <circle r="4.243" cy="264.999" cx="744.23" fill="#3f1a08"/>
    <ellipse ry="4.95" rx="6.718" cy="278.434" cx="471.64" fill="#3f1a08"/>
    <ellipse ry="7.778" rx="8.839" cy="255.806" cx="287.085" fill="#3f1a08"/>
    <ellipse ry="7.425" rx="7.778" cy="262.524" cx="182.787" fill="#3f1a08"/>
    <ellipse ry="3.889" rx="9.546" cy="253.332" cx="103.945" fill="#3f1a08"/>
    <ellipse ry="5.657" rx="6.01" cy="250.15" cx="41.719" fill="#3f1a08"/>
    <ellipse ry="9.546" rx="11.667" cy="251.21" cx="410.122" fill="#3f1a08"/>
    <ellipse ry="8.839" rx="8.485" cy="280.202" cx="267.993" fill="#573625"/>
    <ellipse ry="4.596" rx="6.01" cy="251.21" cx="224.506" fill="#573625"/>
    <ellipse ry="8.839" rx="11.314" cy="243.786" cx="251.376" fill="#3f1a08"/>
    <ellipse ry="7.778" rx="8.839" cy="229.29" cx="397.04" fill="#573625"/>
    <ellipse ry="5.303" rx="7.071" cy="229.29" cx="438.76" fill="#3f1a08"/>
    <ellipse ry="5.657" rx="7.778" cy="245.553" cx="502.046" fill="#573625"/>
    <ellipse ry="3.536" rx="4.596" cy="245.2" cx="448.306" fill="#573625"/>
    <ellipse ry="3.536" rx="4.596" cy="265.352" cx="619.072" fill="#3f1a08"/>
    <circle r="4.243" cy="277.727" cx="415.425" fill="#3f1a08"/>
    <circle r="4.243" cy="286.919" cx="425.325" fill="#3f1a08"/>
    <ellipse ry="6.01" rx="8.132" cy="279.494" cx="241.831" fill="#3f1a08"/>
    <path d="M66.29 149.917l19.8-1.768s.354 9.54.884 10.96c.53 1.41 1.238 9.9 1.238 12.02 0 2.12 1.59 16.97 2.474 19.27.884 2.29 3.36 13.08 1.945 17.32-1.41 4.24 4.78 19.97 4.78 21.39 0 1.41 9.73 40.3 6.9 64.52s21.92 28.28 21.92 28.28 12.95 2.1 18.39 22.98c6.72 25.81.36 43.13-39.24 44.19-14.65.39-27.91-1.78-35.68-4.68-13.22-4.93-17-26.09-17-26.09s-4.35-7.07 2.52-23.12c4.19-9.76 5.15-10.14 20.11-18.96 9.87-5.82 12.06-18.44 10.62-30.41-2.35-19.57-7.08-45.6-7.08-45.6s-9.19-25.46-7.42-39.95c.37-3.02-1.77-14.5-2.48-21.927-.7-7.424-2.65-28.46-2.65-28.46z" fill="#573625" fill-rule="evenodd" stroke="#000"/>
  </g>
</svg>
