<?xml version="1.0" encoding="utf-8"?>
<svg viewBox="0.034443337470293045 1.0266181230545044 750.6474609375 414.85223388671875" width="750.6474609375" height="414.85223388671875" xmlns="http://www.w3.org/2000/svg">
  <g id="layer5" transform="matrix(0.9999999999999999, 0, 0, 0.9999999999999999, 2.034446954727173, -108.3355941772461)">
    <path style="fill:#000000;fill-rule:evenodd;stroke:#000000;stroke-width:1px;stroke-linecap:butt;stroke-linejoin:miter;stroke-opacity:1;fill-opacity:1" d="m 0,109.36221 745,0 0,276 -747,0 z" id="path3952"/>
  </g>
  <g id="layer4" transform="matrix(0.9999999999999999, 0, 0, 0.9999999999999999, 2.034446954727173, -108.3355941772461)">
    <path style="fill:#63301b;fill-opacity:1;fill-rule:evenodd;stroke:#000000;stroke-width:1.00132346px;stroke-linecap:butt;stroke-linejoin:miter;stroke-opacity:1" d="m -1.4942781,155.34734 93.6869391,-8.08119 c 0,0 84.065039,-15.6573 102.802419,-13.13193 18.73739,2.52537 94.19336,3.53551 140.27721,13.63701 46.08384,10.10149 157.49534,16.66746 172.18139,12.62686 14.68606,-4.04059 238.62317,2.32334 238.62317,2.32334 0,0 -1.72363,23.53396 0.24106,39.46544 2.32951,18.88978 -0.23969,305.65172 -0.23969,305.65172 l -166.00311,-3.0536 c -31.14109,-1.74515 -174.65968,19.42941 -218.25348,5.26453 L 347.42264,508.78645 184.0851,500.06631 -1.4942781,514.96037 Z" id="path3449"/>
  </g>
  <g id="layer3" style="" transform="matrix(0.9999999999999999, 0, 0, 0.9999999999999999, 2.034446954727173, -108.3355941772461)">
    <path style="fill:#4c2715;fill-opacity:1;fill-rule:evenodd;stroke:#000000;stroke-width:1.00024188px;stroke-linecap:butt;stroke-linejoin:miter;stroke-opacity:1" d="M -0.58531988,243.43209 -1.2927706,273.1305 c 0,0 112.4846306,25.45578 157.7614806,11.31367 45.27684,-14.14209 182.52225,45.96184 215.77241,22.62738 33.25017,-23.33447 162.00619,-14.1421 162.00619,-14.1421 l 212.94261,-8.48528 0,-28.2842 c 0,0 -218.60222,12.02079 -280.15043,-31.11261 -61.5482,-43.13341 -234.16612,3.53553 -234.16612,3.53553 0,0 -42.44705,23.33445 -233.45868988,14.8492 z" id="path3594"/>
  </g>
  <g id="layer1" transform="matrix(0.9999999999999999, 0, 0, 0.9999999999999999, 2.034446954727173, -108.3355941772461)">
    <a id="a3600">
      <path id="path3451" d="M 322.50195 262.67188 C 313.65325 262.62748 305.44482 268.23145 303.55078 269.49414 C 300.52032 271.51445 274.25663 299.7985 269.71094 315.96094 C 265.16525 332.12338 281.83203 340.20508 281.83203 340.20508 L 281.83203 333.63867 L 286.88281 336.16406 L 287.38867 328.58789 L 292.43945 331.61914 L 294.45898 325.05273 L 299.50977 327.07227 L 301.53125 321.01172 L 308.60156 322.02148 L 310.11719 315.96094 L 315.16797 315.96094 L 319.20898 312.42578 L 319.20898 316.4668 L 311.12695 319.49609 L 311.12695 324.04297 L 303.55078 324.54688 L 302.03516 328.58789 L 295.46875 329.59766 L 294.96484 335.6582 L 289.4082 333.63867 L 288.9043 340.20508 L 283.85352 339.69922 L 282.33789 343.74023 L 276.78125 344.24609 C 276.78125 344.24609 290.92386 363.94255 301.02539 358.38672 C 311.12691 352.83088 326.78516 331.61914 326.78516 331.61914 C 326.78516 331.61914 326.27932 304.84999 333.85547 303.83984 C 341.43161 302.82969 345.47266 296.76758 345.47266 296.76758 C 345.47266 296.76758 350.01831 287.67729 337.89648 271.00977 C 333.3508 264.75945 327.81117 262.69851 322.50195 262.67188 z M 309.21289 277.5332 C 312.23928 277.49325 314.1582 279.08984 314.1582 279.08984 C 314.1582 279.08984 316.17811 287.67737 310.11719 293.73828 C 304.05628 299.7992 298.5 295.25195 298.5 295.25195 C 298.5 295.25195 292.94339 290.20231 300.51953 282.12109 C 303.8341 278.58556 306.85903 277.56428 309.21289 277.5332 z " style="fill:#ddc69d;fill-rule:evenodd;stroke:#000000;stroke-width:1px;stroke-linecap:butt;stroke-linejoin:miter;stroke-opacity:1;fill-opacity:1"/>
    </a>
    <path style="fill:#ddc69d;fill-rule:evenodd;stroke:#000000;stroke-width:1px;stroke-linecap:butt;stroke-linejoin:miter;stroke-opacity:1;fill-opacity:1" d="m 347.99755,294.7478 c 0,0 -6.06091,10.6066 -9.09137,11.11167 -3.03046,0.50508 2.52538,6.06092 8.5863,-1.01015 6.06091,-7.07107 0.50507,-10.10152 0.50507,-10.10152 z" id="path3464"/>
    <path style="fill:#ddc69d;fill-rule:evenodd;stroke:#000000;stroke-width:1px;stroke-linecap:butt;stroke-linejoin:miter;stroke-opacity:1;fill-opacity:1" d="m 352.54324,299.92483 c 0,0 -1.01015,6.56599 -9.34391,11.49048 -8.33376,4.9245 7.82868,2.65165 8.9651,-1.13642 1.13642,-3.78807 3.6618,-1.6415 0.37881,-10.35406 z" id="path3468"/>
    <path style="fill:#ddc69d;fill-rule:evenodd;stroke:#000000;stroke-width:1px;stroke-linecap:butt;stroke-linejoin:miter;stroke-opacity:1;fill-opacity:1" d="m 356.20504,306.99589 c 0,0 -3.40926,7.57615 -8.71256,9.34392 -5.3033,1.76776 3.6618,3.28299 5.6821,0.75761 2.02031,-2.52538 5.17704,-5.42957 5.17704,-4.92449 0,0.50507 0.3788,-4.16688 -2.14658,-5.17704 z" id="path3470"/>
    <path style="fill:#ddc69d;fill-rule:evenodd;stroke:#000000;stroke-width:1px;stroke-linecap:butt;stroke-linejoin:miter;stroke-opacity:1;fill-opacity:1" d="m 360.24565,312.42546 c 0,0 -5.55584,7.95496 -8.83883,8.96511 -3.283,1.01015 5.05076,3.40926 7.57614,-0.37881 2.52538,-3.78807 3.6618,-5.05076 1.26269,-8.5863 z" id="path3472"/>
    <path style="fill:#ddc69d;fill-rule:evenodd;stroke:#000000;stroke-width:1px;stroke-linecap:butt;stroke-linejoin:miter;stroke-opacity:1;fill-opacity:1" d="m 355.44743,325.30491 c 0,0 7.3236,-3.78807 8.08122,-7.70241 0.75761,-3.91435 3.28299,3.15672 2.0203,4.29314 -1.26269,1.13643 -3.03045,4.29315 -5.55584,5.17704 -2.52538,0.88388 -3.91434,-0.25254 -4.54568,-1.76777 z" id="path3476"/>
    <path style="fill:#ddc69d;fill-rule:evenodd;stroke:#000000;stroke-width:1px;stroke-linecap:butt;stroke-linejoin:miter;stroke-opacity:1;fill-opacity:1" d="m 368.07433,321.39057 c 0,0 -4.67195,7.07107 -8.08122,8.46003 -3.40926,1.38896 5.93465,2.77792 7.07107,2.14657 1.13642,-0.63135 3.91434,-6.81853 3.91434,-6.81853 0,0 0.37881,-1.76777 -2.90419,-3.78807 z" id="path3478"/>
    <path style="fill:#ddc69d;fill-rule:evenodd;stroke:#000000;stroke-width:1px;stroke-linecap:butt;stroke-linejoin:miter;stroke-opacity:1;fill-opacity:1" d="m 364.79134,353.0841 c 0,0 8.46003,6.69226 7.70241,9.21765 -0.75761,2.52538 3.78807,9.09137 -5.42957,8.71256 -9.21764,-0.37881 -25.63262,-0.75761 -25.63262,-0.75761 0,0 -0.63134,10.10152 -7.19734,-0.37881 -6.56599,-10.48033 7.32361,-8.46003 7.32361,-8.46003 0,0 1.6415,1.26269 1.51523,3.91434 -0.12627,2.65165 19.82424,-3.03045 19.82424,-3.03045 0,0 -2.52538,-8.33376 1.89404,-9.21765 z" id="path3482"/>
    <path style="fill:#ddc69d;fill-opacity:1;fill-rule:evenodd;stroke:#000000;stroke-width:1px;stroke-linecap:butt;stroke-linejoin:miter;stroke-opacity:1" d="m 330.69869,366.08981 c 0,0 -5.69844,4.01061 -8.33376,7.32361 -2.48163,3.1198 -3.62461,9.12124 -4.18105,15.73194 -0.45318,5.38388 0.43567,6.59278 0.88908,8.06638 1.01016,3.283 3.62746,4.95142 3.62746,4.95142 0,0 -1.64863,-7.03786 -0.88774,-13.70608 0.58193,-5.09989 2.41566,-9.97123 2.41566,-9.97123 0.96251,-2.06284 6.09154,-9.74439 7.22797,-8.8605 1.13642,0.88388 -0.75762,-3.53554 -0.75762,-3.53554 z" id="path3484"/>
    <a id="a3490" transform="translate(0.50507627,-1.3889598)" style="fill:#ddc69d;fill-opacity:1">
      <path id="path3488" d="m 332.34018,372.40328 c 0,0 -4.16687,3.15672 -5.17702,7.07106 -1.01016,3.91434 -2.14658,11.99556 -2.14658,11.99556 0,0 1.53317,9.09509 2.41706,10.10524 0.88388,1.01015 3.62745,5.6657 3.62745,5.6657 0,0 -2.57311,-16.53183 -2.50898,-17.1599 0.35949,-3.52082 4.95414,-13.94999 4.82984,-15.36035 -0.38011,-4.31283 -1.04177,-2.31731 -1.04177,-2.31731 z" style="fill:#ddc69d;fill-opacity:1;fill-rule:evenodd;stroke:#000000;stroke-width:1px;stroke-linecap:butt;stroke-linejoin:miter;stroke-opacity:1"/>
    </a>
    <path style="fill:#ddc69d;fill-rule:evenodd;stroke:#000000;stroke-width:1px;stroke-linecap:butt;stroke-linejoin:miter;stroke-opacity:1;fill-opacity:1" d="m 336.12826,375.30746 c 0,0 -2.77792,3.78807 -3.03046,6.06092 -0.25254,2.27284 0.25254,10.10152 0.25254,10.10152 0,0 1.6415,8.5863 3.6618,9.21764 2.02031,0.63135 6.06092,2.02031 6.06092,2.02031 l -4.54569,-4.79823 c 0,0 -3.53553,-10.85914 -2.52538,-13.51079 1.01015,-2.65165 1.38896,-8.08122 1.38896,-8.08122 z" id="path3493"/>
    <path style="fill:#ddc69d;fill-rule:evenodd;stroke:#000000;stroke-width:1px;stroke-linecap:butt;stroke-linejoin:miter;stroke-opacity:1;fill-opacity:1" d="m 377.25,320.11221 c 0,0 -4.75,14 -10.375,17.75 -5.625,3.75 3.75,2.125 3.75,2.125 0,0 11.75,-10.25 11,-12.375 -0.75,-2.125 -1,-6 -4.375,-7.5 z" id="path3498"/>
    <path style="fill:#ddc69d;fill-rule:evenodd;stroke:#000000;stroke-width:1px;stroke-linecap:butt;stroke-linejoin:miter;stroke-opacity:1;fill-opacity:1" d="m 385.25,327.23721 c 0,0 -2.625,12.875 -5.125,15 -2.5,2.125 -11.375,8.75 -11.375,8.75 0,0 3.125,6 5.25,7.25 2.125,1.25 20.125,-0.25 22.375,-2 2.25,-1.75 15.125,-16.5 15,-19.125 -0.125,-2.625 -17,-4.375 -26.125,-9.875 z" id="path3500"/>
    <path style="fill:#ddc69d;fill-rule:evenodd;stroke:#000000;stroke-width:1px;stroke-linecap:butt;stroke-linejoin:miter;stroke-opacity:1;fill-opacity:1" d="m 415.95557,335.88626 -6.36396,9.54594 9.19238,-0.35355 c 0,0 2.12132,5.65685 3.18198,5.83363 1.06066,0.17677 0.17678,-5.48008 0.17678,-5.48008 l 3.71231,0 0.17678,-9.72272 -2.93198,-0.19638 c 0,0 0.40843,-0.84673 1.12666,-2.15974 0.74793,-1.36733 1.80543,-3.21392 1.73025,-3.77929 -0.0559,-0.42012 -3.43397,2.29358 -3.64229,2.53171 -2.23856,2.55907 -1.31535,2.10492 -2.76088,3.8537 z" id="path3502"/>
    <path style="fill:#ddc69d;fill-rule:evenodd;stroke:#000000;stroke-width:1px;stroke-linecap:butt;stroke-linejoin:miter;stroke-opacity:1;fill-opacity:1" d="m 430.0977,335.35593 -0.53033,9.36917 4.24264,-0.35356 3.88909,5.48008 -0.17678,-5.65685 4.41942,-0.17678 0.17677,-9.36917 -4.06586,-0.17677 3.0052,-6.71752 -6.0104,7.07107 z" id="path3504"/>
    <path style="fill:#ddc69d;fill-rule:evenodd;stroke:#000000;stroke-width:1px;stroke-linecap:butt;stroke-linejoin:miter;stroke-opacity:1;fill-opacity:1" d="m 445.47727,335.88626 -1.59099,8.30851 3.35876,0.88388 1.76776,4.59619 0.70711,-4.41941 5.48008,0.17677 0.35355,-7.24784 -4.24264,-1.23744 4.06587,-5.65685 -7.07107,4.41941 z" id="path3506"/>
    <path style="fill:#ddc69d;fill-rule:evenodd;stroke:#000000;stroke-width:1px;stroke-linecap:butt;stroke-linejoin:miter;stroke-opacity:1;fill-opacity:1" d="m 458.02842,338.18436 -0.35356,7.07107 4.5962,0.7071 1.94454,5.83363 0.88388,-5.3033 3.35876,0 0,-8.13173 -2.82843,0.35356 1.76777,-6.01041 -4.77297,6.01041 z" id="path3508"/>
    <path style="fill:#ddc69d;fill-rule:evenodd;stroke:#000000;stroke-width:1px;stroke-linecap:butt;stroke-linejoin:miter;stroke-opacity:1;fill-opacity:1" d="m 472.70088,339.59857 -0.53033,7.77818 4.77297,0.88388 2.2981,6.01041 0.17678,-6.36396 5.3033,0.7071 0.53033,-8.13173 -4.94975,-0.88388 1.94454,-5.65685 -5.65685,5.65685 z" id="path3510"/>
    <path style="fill:#ddc69d;fill-rule:evenodd;stroke:#000000;stroke-width:1px;stroke-linecap:butt;stroke-linejoin:miter;stroke-opacity:1;fill-opacity:1" d="m 426.20861,346.49286 c 0,0 -2.61507,25.30956 -4.06586,31.11271 -1.67121,6.68482 -1.61354,5.49719 -4.00772,11.26493 -2.01782,4.86108 -7.99605,7.69011 -10.3112,8.8876 -5.12652,2.65165 7.42463,-1.41421 7.42463,-1.41421 0,0 3.51686,-1.76764 6.11731,-6.48176 2.57338,-4.66502 3.78218,-10.84235 3.78218,-10.84235 1.27348,-10.8298 4.5962,-31.81981 3.88909,-32.52692 -0.70711,-0.7071 -2.82843,0 -2.82843,0 z" id="path3512"/>
    <path style="fill:#ddc69d;fill-rule:evenodd;stroke:#000000;stroke-width:1px;stroke-linecap:butt;stroke-linejoin:miter;stroke-opacity:1;fill-opacity:1" d="m 410.29871,347.19997 3.0052,0.35355 c 0,0 1.1778,5.67605 -0.32026,12.83771 -1.09276,5.22403 -5.50599,14.7532 -8.3418,18.62854 -1.56339,2.1365 -13.65624,8.98713 -12.19759,7.60141 l 7.07108,-6.71753 c 0,0 1.11527,0.0576 6.54073,-9.72271 5.02757,-9.0631 4.26967,-13.75947 4.06587,-13.78858 z" id="path3516"/>
    <path style="fill:#ddc69d;fill-rule:evenodd;stroke:#000000;stroke-width:1px;stroke-linecap:butt;stroke-linejoin:miter;stroke-opacity:1;fill-opacity:1" d="m 438.93653,347.37675 2.2981,0 c 0,0 -0.53033,31.64303 -1.76777,35.53211 -1.23744,3.88909 -2.12132,20.32932 -13.96536,23.33453 -11.84403,3.0052 -4.24264,-0.70711 -4.24264,-0.70711 0,0 10.48487,-1.34966 13.96536,-19.62221 3.53554,-18.56156 3.71231,-38.53732 3.71231,-38.53732 z" id="path3518"/>
    <path style="fill:#ddc69d;fill-rule:evenodd;stroke:#000000;stroke-width:1px;stroke-linecap:butt;stroke-linejoin:miter;stroke-opacity:1;fill-opacity:1" d="m 452.72512,348.43741 3.18198,0.17677 -0.17678,30.58237 c 0,0 -0.57895,4.99539 -2.53723,9.41981 -0.94754,2.14082 -1.40568,2.65868 -3.82673,5.25266 -7.42462,7.95495 -9.01561,6.89429 -10.25305,7.42462 -1.23744,0.53033 8.13172,-4.41942 12.37437,-16.61701 0.49726,-1.4296 0.70744,-3.65823 1.20304,-6.95265 0.84694,-5.63004 0.96454,-11.94005 0.7415,-16.73543 -0.35356,-7.6014 -0.7071,-12.55114 -0.7071,-12.55114 z" id="path3522"/>
    <path style="fill:#ddc69d;fill-rule:evenodd;stroke:#000000;stroke-width:1px;stroke-linecap:butt;stroke-linejoin:miter;stroke-opacity:1;fill-opacity:1" d="m 466.5137,348.61418 2.65165,0 c 0.51109,-0.93699 1.15426,29.21653 -1.76777,36.06245 -1.45429,3.4072 -4.29103,10.71079 -6.89429,12.37437 -2.63535,1.68409 -7.77817,2.29809 -7.77817,2.29809 0.0709,0.10166 9.13285,-2.07711 12.02081,-18.208 2.75069,-15.36419 1.76777,-32.52691 1.76777,-32.52691 z" id="path3524"/>
    <path style="fill:#ddc69d;fill-rule:evenodd;stroke:#000000;stroke-width:1px;stroke-linecap:butt;stroke-linejoin:miter;stroke-opacity:1;fill-opacity:1" d="m 497.27284,337.30047 c 0,0 -6.54074,3.00521 -10.42982,18.208 -3.88909,15.2028 -9.01561,13.25826 -9.01561,13.25826 0,0 -1.41422,5.12652 2.12132,6.54073 3.53553,1.41422 -4.5962,3.35876 -7.07107,2.82843 -1.52418,-0.32661 -1.92246,4.04933 0.65684,7.20958 1.60884,1.9712 6.49006,1.34821 7.82844,3.75058 4.41763,7.9296 12.0206,31.46651 12.02082,31.46625 0,0 0.2889,2.31046 -0.52308,4.19391 -1.42043,3.29481 -4.0246,7.10385 -1.77502,8.00368 3.53553,1.41421 7.07107,-2.82843 7.07107,-2.82843 0,0 5.3033,-5.12652 3.88908,-7.42462 -1.41421,-2.2981 -4.41941,-1.59099 -4.41941,-1.59099 L 483.83781,387.1515 c 0,0 -0.7071,-6.18718 5.12653,-11.49048 5.83363,-5.3033 11.66726,-0.35356 11.66726,-0.35356 0,0 7.07107,4.5962 4.77297,-18.38477 -2.2981,-22.98097 -8.13173,-19.62222 -8.13173,-19.62222 z" id="path3526"/>
    <path style="fill:#ddc69d;fill-rule:evenodd;stroke:#000000;stroke-width:1px;stroke-linecap:butt;stroke-linejoin:miter;stroke-opacity:1;fill-opacity:1" d="m 514.42018,361.3421 c 0,0 -2.82843,17.85445 -2.82843,18.56156 0,0.7071 7.07107,9.36916 11.13694,7.95495 4.06586,-1.41421 9.01561,-4.77297 9.01561,-4.77297 l 2.82843,-26.33973 c 0,0 -8.30851,13.96536 -11.66727,13.08148 -3.35875,-0.88389 -8.48528,-8.48529 -8.48528,-8.48529 z" id="path3528"/>
    <path style="fill:#ddc69d;fill-rule:evenodd;stroke:#000000;stroke-width:1px;stroke-linecap:butt;stroke-linejoin:miter;stroke-opacity:1;fill-opacity:1" d="m 537.0476,369.47383 -2.2981,18.38478 c 0,0 8.30851,6.71751 9.36917,6.18718 1.06066,-0.53033 7.42462,3.88909 9.89949,-5.48007 2.47488,-9.36917 3.88909,-24.21841 3.88909,-24.21841 0,0 -9.36917,12.9047 -11.66726,12.02081 -2.2981,-0.88388 -9.19239,-6.89429 -9.19239,-6.89429 z" id="path3530"/>
    <path style="fill:#ddc69d;fill-rule:evenodd;stroke:#000000;stroke-width:1px;stroke-linecap:butt;stroke-linejoin:miter;stroke-opacity:1;fill-opacity:1" d="m 560.20535,373.5397 0,18.38477 c 0,0 6.0104,3.88909 8.48528,2.82843 2.47487,-1.06066 11.66726,-2.65165 11.66726,-2.65165 l -0.70711,-12.37437 c 0,0 -1.76776,-0.70711 -2.65165,-1.94454 -0.88388,-1.23744 0.17678,-15.37958 0.17678,-15.37958 l -7.42462,14.49569 c 0,0 -1.94455,1.06066 -9.54594,-3.35875 z" id="path3532"/>
    <path style="fill:#ddc69d;fill-rule:evenodd;stroke:#000000;stroke-width:1px;stroke-linecap:butt;stroke-linejoin:miter;stroke-opacity:1;fill-opacity:1" d="m 584.24698,370.35772 0.35355,17.67767 c 0,0 18.38478,0.7071 19.09188,0.17677 0.70711,-0.53033 -0.17677,-13.96536 -0.17677,-13.96536 l -2.82843,-1.06066 1.94454,-16.08668 c 0,0 -6.36396,8.66206 -7.07107,13.61181 -0.7071,4.94975 -6.36396,0.88388 -6.36396,0.88388 z" id="path3534"/>
    <path style="fill:#ddc69d;fill-rule:evenodd;stroke:#000000;stroke-width:1px;stroke-linecap:butt;stroke-linejoin:miter;stroke-opacity:1;fill-opacity:1" d="m 609.34927,361.69566 3.71231,14.84924 13.43503,0.88388 4.41941,-5.3033 -5.65685,-13.43503 -2.65165,-13.43502 -4.94975,15.9099 z" id="path3536"/>
    <path style="fill:#ddc69d;fill-rule:evenodd;stroke:#000000;stroke-width:1px;stroke-linecap:butt;stroke-linejoin:miter;stroke-opacity:1;fill-opacity:1" d="m 629.67859,355.50847 4.77297,13.78859 15.55635,-2.65165 -0.53033,-12.55115 -3.00521,0.35355 -2.47487,-14.67246 -3.0052,14.84924 z" id="path3538"/>
    <path style="fill:#ddc69d;fill-rule:evenodd;stroke:#000000;stroke-width:1px;stroke-linecap:butt;stroke-linejoin:miter;stroke-opacity:1;fill-opacity:1" d="m 651.77567,350.91228 3.35876,10.42982 9.8995,-2.29809 -0.53033,-10.25305 -4.06587,0.88388 1.41422,-9.19239 -5.48008,10.07628 z" id="path3542"/>
    <path style="fill:#ddc69d;fill-rule:evenodd;stroke:#000000;stroke-width:1px;stroke-linecap:butt;stroke-linejoin:miter;stroke-opacity:1;fill-opacity:1" d="m 668.56946,347.37675 1.41421,8.48528 11.31371,-2.12132 -0.70711,-8.83884 -3.88908,0.17678 0.7071,-9.01561 -4.59619,9.36916 z" id="path3544"/>
    <path style="fill:#ddc69d;fill-rule:evenodd;stroke:#000000;stroke-width:1px;stroke-linecap:butt;stroke-linejoin:miter;stroke-opacity:1;fill-opacity:1" d="m 684.30259,345.4322 1.06066,6.18719 c 0,0 23.68807,-0.88389 26.33972,1.06066 2.65165,1.94454 -1.59099,-4.77297 -27.40038,-7.24785 z" id="path3546"/>
    <path style="fill:#ddc69d;fill-rule:evenodd;stroke:#000000;stroke-width:1px;stroke-linecap:butt;stroke-linejoin:miter;stroke-opacity:1;fill-opacity:1" d="m 505.75812,424.09783 -6.18718,8.48528 c 0,0 5.48008,3.18198 6.18718,2.47488 0.47894,-0.47894 7.36189,10.62822 14.94839,20.47018 3.61428,4.6888 16.51787,10.11218 16.51787,10.11218 0,0 -9.18008,-5.68083 -15.33689,-14.40101 -3.62987,-5.14115 -12.3573,-14.79866 -12.94739,-15.65102 -0.80065,-1.15649 7.69908,5.401 15.64341,13.16507 7.84206,7.66414 15.12032,16.53113 15.82285,16.17986 1.26127,-0.63064 -5.88212,-12.94666 -20.74409,-26.48675 -1.561,-1.42215 -10.47142,-7.28423 -10.89894,-9.04537 -0.71991,-2.96567 -3.00521,-5.3033 -3.00521,-5.3033 z" id="path3548"/>
    <path style="fill:#ddc69d;fill-rule:evenodd;stroke:#000000;stroke-width:1px;stroke-linecap:butt;stroke-linejoin:miter;stroke-opacity:1;fill-opacity:1" d="m 541.11346,470.23655 c 0,0 -9.54594,-1.41421 -9.19239,-3.88909 0.35356,-2.47487 -25.27906,-1.06066 -28.46104,1.41422 -3.18198,2.47487 1.59099,16.44023 1.59099,16.44023 0,0 -0.70711,-10.07628 3.0052,-12.37437 1.95976,-1.21319 7.8023,-1.9041 19.97577,1.23744 3.07199,0.79277 -3.30982,1.36308 -9.41858,3.57589 -4.78856,1.73457 -7.85786,-0.61785 -9.49653,5.61649 0,0 3.18198,12.90471 4.24264,12.55115 1.06066,-0.35355 0.53033,-12.02081 0.53033,-12.02081 0,0 24.21841,-6.36397 27.22361,-12.55115 z" id="path3550"/>
    <ellipse style="fill:#573625;fill-opacity:1" id="path3603" cx="23.334524" cy="256.86707" rx="7.7781744" ry="5.6568542"/>
    <ellipse style="fill:#573625;fill-opacity:1" id="path3603-4" cx="62.578953" cy="254.74577" rx="11.667262" ry="9.1923876"/>
    <circle style="fill:#573625;fill-opacity:1" id="path3603-7" cx="89.449013" cy="269.24146" r="3.8890872"/>
    <ellipse style="fill:#573625;fill-opacity:1" id="path3603-48" cx="115.96552" cy="266.76657" rx="7.7781744" ry="5.6568542"/>
    <ellipse style="fill:#573625;fill-opacity:1" id="path3603-2" cx="214.25337" cy="275.25186" rx="11.313708" ry="9.1923876"/>
    <ellipse style="fill:#573625;fill-opacity:1" id="path3603-0" cx="354.2605" cy="256.15997" rx="7.7781744" ry="5.6568542"/>
    <ellipse style="fill:#573625;fill-opacity:1" id="path3603-8" cx="398.1011" cy="288.33334" rx="8.485281" ry="8.8388348"/>
    <ellipse style="fill:#573625;fill-opacity:1" id="path3603-9" cx="368.40262" cy="237.0681" rx="7.7781744" ry="5.6568542"/>
    <ellipse style="fill:#573625;fill-opacity:1" id="path3603-25" cx="442.29529" cy="269.24146" rx="8.1317282" ry="3.8890872"/>
    <ellipse style="fill:#573625;fill-opacity:1" id="path3603-04" cx="536.69403" cy="263.93814" rx="7.7781744" ry="5.6568542"/>
    <ellipse style="fill:#573625;fill-opacity:1" id="path3603-49" cx="557.20013" cy="262.8775" rx="5.6568542" ry="3.1819804"/>
    <ellipse style="fill:#573625;fill-opacity:1" id="path3603-3" cx="637.8103" cy="273.13052" rx="7.7781744" ry="5.6568542"/>
    <ellipse style="fill:#573625;fill-opacity:1" id="path3603-86" cx="685.18646" cy="269.595" rx="5.6568542" ry="3.5355339"/>
    <ellipse style="fill:#3f1a08;fill-opacity:1" id="path3603-491" cx="479.06488" cy="257.92776" rx="11.667262" ry="9.5459414"/>
    <ellipse style="fill:#3f1a08;fill-opacity:1" id="path3603-491-5" cx="344.36096" cy="234.23965" rx="12.374369" ry="5.3033009"/>
    <ellipse style="fill:#3f1a08;fill-opacity:1" id="path3603-491-7" cx="585.13086" cy="274.19119" rx="7.7781749" ry="7.7781744"/>
    <ellipse style="fill:#3f1a08;fill-opacity:1" id="path3603-491-3" cx="657.60925" cy="267.82721" rx="6.7175145" ry="4.2426405"/>
    <ellipse style="fill:#3f1a08;fill-opacity:1" id="path3603-491-4" cx="724.43085" cy="274.19119" rx="7.0710678" ry="5.6568542"/>
    <ellipse style="fill:#3f1a08;fill-opacity:1" id="path3603-491-2" cx="744.22992" cy="264.99881" rx="4.242641" ry="4.2426405"/>
    <ellipse style="fill:#3f1a08;fill-opacity:1" id="path3603-491-9" cx="471.64023" cy="278.43384" rx="6.7175145" ry="4.9497471"/>
    <ellipse style="fill:#3f1a08;fill-opacity:1" id="path3603-491-8" cx="287.08533" cy="255.80643" rx="8.8388348" ry="7.7781744"/>
    <ellipse style="fill:#3f1a08;fill-opacity:1" id="path3603-491-41" cx="182.78711" cy="262.52396" rx="7.7781749" ry="7.4246211"/>
    <ellipse style="fill:#3f1a08;fill-opacity:1" id="path3603-491-1" cx="103.94469" cy="253.33154" rx="9.5459414" ry="3.8890872"/>
    <ellipse style="fill:#3f1a08;fill-opacity:1" id="path3603-491-48" cx="41.719303" cy="250.14957" rx="6.0104079" ry="5.6568542"/>
    <ellipse style="fill:#3f1a08;fill-opacity:1" id="path3603-491-90" cx="410.12195" cy="251.21024" rx="11.667262" ry="9.5459414"/>
    <ellipse style="fill:#573625;fill-opacity:1" id="path3603-8-0" cx="267.99347" cy="280.2016" rx="8.485281" ry="8.8388348"/>
    <ellipse style="fill:#573625;fill-opacity:1" id="path3603-8-8" cx="224.50639" cy="251.21022" rx="6.0104074" ry="4.5961943"/>
    <ellipse style="fill:#3f1a08;fill-opacity:1" id="path3603-491-8-9" cx="251.37646" cy="243.78561" rx="11.313708" ry="8.8388348"/>
    <ellipse style="fill:#573625;fill-opacity:1" id="path3603-0-5" cx="397.04044" cy="229.28992" rx="8.8388348" ry="7.7781744"/>
    <ellipse style="fill:#3f1a08;fill-opacity:1" id="path3603-491-90-9" cx="438.75974" cy="229.28992" rx="7.0710678" ry="5.3033009"/>
    <ellipse style="fill:#573625;fill-opacity:1" id="path3603-04-8" cx="502.04584" cy="245.55336" rx="7.7781744" ry="5.6568542"/>
    <ellipse style="fill:#573625;fill-opacity:1" id="path3603-25-6" cx="448.30569" cy="245.1998" rx="4.5961943" ry="3.5355339"/>
    <ellipse style="fill:#3f1a08;fill-opacity:1" id="path3603-491-7-0" cx="619.07196" cy="265.35236" rx="4.5961943" ry="3.5355337"/>
    <ellipse style="fill:#3f1a08;fill-opacity:1" id="path3603-491-72" cx="415.42523" cy="277.72672" rx="4.242641" ry="4.2426405"/>
    <ellipse style="fill:#3f1a08;fill-opacity:1" id="path3603-491-82" cx="425.32471" cy="286.91913" rx="4.242641" ry="4.2426405"/>
    <ellipse style="fill:#3f1a08;fill-opacity:1" id="path3603-491-12" cx="241.83051" cy="279.49448" rx="8.1317282" ry="6.0104074"/>
    <path style="fill:#573625;fill-rule:evenodd;stroke:#000000;stroke-width:1px;stroke-linecap:butt;stroke-linejoin:miter;stroke-opacity:1;fill-opacity:1" d="m 66.291261,149.91718 19.798989,-1.76777 c 0,0 0.353554,9.54594 0.883884,10.96016 0.53033,1.41421 1.237437,9.89949 1.237437,12.02081 0,2.12132 1.59099,16.97056 2.474873,19.26866 0.883884,2.2981 3.358758,13.08148 1.944544,17.32412 -1.414213,4.24264 4.772971,19.97576 4.772971,21.38998 0,1.41421 9.722721,40.30508 6.894291,64.52349 -2.82843,24.21841 21.92031,28.28427 21.92031,28.28427 0,0 12.94957,2.09836 18.38478,22.98098 6.71752,25.80939 0.35355,43.13351 -39.24443,44.19417 -14.655689,0.39256 -27.911789,-1.7817 -35.678945,-4.67655 -13.218803,-4.92669 -17.00051,-26.0826 -17.00051,-26.0826 0,0 -4.352191,-7.0665 2.521614,-23.1124 4.182192,-9.76272 5.14812,-10.13698 20.105804,-18.96046 9.864579,-5.81908 12.053002,-18.43638 10.615797,-30.40682 -2.349517,-19.56905 -7.080263,-45.60715 -7.080263,-45.60715 0,0 -9.192388,-25.45585 -7.424621,-39.95153 0.368173,-3.01902 -1.767767,-14.49569 -2.474874,-21.92031 -0.707107,-7.42463 -2.65165,-28.46105 -2.651651,-28.46105 z" id="path3949"/>
  </g>
</svg>